<mxfile host="app.diagrams.net" agent="Mozilla/5.0 (Windows NT 10.0; Win64; x64) AppleWebKit/537.36 (KHTML, like Gecko) Chrome/135.0.0.0 Safari/537.36" version="26.2.12">
  <diagram name="Page-1" id="3qZtqdcquCFcV4S7Fdgd">
    <mxGraphModel dx="871" dy="2085" grid="1" gridSize="10" guides="1" tooltips="1" connect="1" arrows="1" fold="1" page="1" pageScale="1" pageWidth="1169" pageHeight="1654" math="0" shadow="0">
      <root>
        <mxCell id="0" />
        <mxCell id="1" parent="0" />
        <mxCell id="1uN6SyRcfflf3LA_XtME-27" style="edgeStyle=orthogonalEdgeStyle;rounded=0;orthogonalLoop=1;jettySize=auto;html=1;entryX=0;entryY=0.5;entryDx=0;entryDy=0;fillColor=#fff2cc;strokeColor=#d6b656;" edge="1" parent="1" source="1uN6SyRcfflf3LA_XtME-2" target="1uN6SyRcfflf3LA_XtME-25">
          <mxGeometry relative="1" as="geometry" />
        </mxCell>
        <mxCell id="1uN6SyRcfflf3LA_XtME-45" style="edgeStyle=orthogonalEdgeStyle;rounded=0;orthogonalLoop=1;jettySize=auto;html=1;fillColor=#fff2cc;strokeColor=#d6b656;" edge="1" parent="1" source="1uN6SyRcfflf3LA_XtME-2">
          <mxGeometry relative="1" as="geometry">
            <mxPoint x="90" y="170" as="targetPoint" />
          </mxGeometry>
        </mxCell>
        <mxCell id="1uN6SyRcfflf3LA_XtME-2" value="&lt;b&gt;P3.4: Sync Status with Booking Data&lt;/b&gt;" style="ellipse;whiteSpace=wrap;html=1;fillColor=#dae8fc;strokeColor=#6c8ebf;" vertex="1" parent="1">
          <mxGeometry x="120" y="10" width="120" height="80" as="geometry" />
        </mxCell>
        <mxCell id="1uN6SyRcfflf3LA_XtME-3" value="&lt;b&gt;P3.3: Confirm Third-Party Booking&lt;/b&gt;" style="ellipse;whiteSpace=wrap;html=1;fillColor=#dae8fc;strokeColor=#6c8ebf;" vertex="1" parent="1">
          <mxGeometry x="530" y="-160" width="120" height="80" as="geometry" />
        </mxCell>
        <mxCell id="1uN6SyRcfflf3LA_XtME-4" value="&lt;b&gt;P3.2: Query Transport Provider&lt;/b&gt;" style="ellipse;whiteSpace=wrap;html=1;fillColor=#dae8fc;strokeColor=#6c8ebf;" vertex="1" parent="1">
          <mxGeometry x="250" y="50" width="120" height="80" as="geometry" />
        </mxCell>
        <mxCell id="1uN6SyRcfflf3LA_XtME-15" style="edgeStyle=orthogonalEdgeStyle;rounded=0;orthogonalLoop=1;jettySize=auto;html=1;entryX=1;entryY=0.5;entryDx=0;entryDy=0;fillColor=#fff2cc;strokeColor=#d6b656;" edge="1" parent="1">
          <mxGeometry relative="1" as="geometry">
            <mxPoint x="540" y="90.55946811266904" as="sourcePoint" />
            <mxPoint x="480" y="-10" as="targetPoint" />
            <Array as="points">
              <mxPoint x="540" y="60" />
              <mxPoint x="500" y="60" />
              <mxPoint x="500" y="-10" />
            </Array>
          </mxGeometry>
        </mxCell>
        <mxCell id="1uN6SyRcfflf3LA_XtME-36" style="edgeStyle=orthogonalEdgeStyle;rounded=0;orthogonalLoop=1;jettySize=auto;html=1;entryX=0;entryY=0.75;entryDx=0;entryDy=0;fillColor=#fff2cc;strokeColor=#d6b656;" edge="1" parent="1" target="1uN6SyRcfflf3LA_XtME-34">
          <mxGeometry relative="1" as="geometry">
            <mxPoint x="570" y="120" as="sourcePoint" />
            <mxPoint x="580" y="240" as="targetPoint" />
          </mxGeometry>
        </mxCell>
        <mxCell id="1uN6SyRcfflf3LA_XtME-7" value="&#xa;P3.1: Query Accommodation Provider&#xa;&#xa;" style="ellipse;whiteSpace=wrap;html=1;fillColor=#dae8fc;strokeColor=#6c8ebf;fontStyle=1" vertex="1" parent="1">
          <mxGeometry x="490" y="80" width="120" height="80" as="geometry" />
        </mxCell>
        <mxCell id="1uN6SyRcfflf3LA_XtME-11" value="&lt;b&gt;P1.2: Booking Management&lt;/b&gt;" style="ellipse;whiteSpace=wrap;html=1;fillColor=#dae8fc;strokeColor=#6c8ebf;" vertex="1" parent="1">
          <mxGeometry x="380" y="190" width="120" height="80" as="geometry" />
        </mxCell>
        <mxCell id="1uN6SyRcfflf3LA_XtME-12" style="edgeStyle=orthogonalEdgeStyle;rounded=0;orthogonalLoop=1;jettySize=auto;html=1;entryX=0;entryY=0.375;entryDx=0;entryDy=0;entryPerimeter=0;fillColor=#fff2cc;strokeColor=#d6b656;" edge="1" parent="1" source="1uN6SyRcfflf3LA_XtME-11" target="1uN6SyRcfflf3LA_XtME-7">
          <mxGeometry relative="1" as="geometry" />
        </mxCell>
        <mxCell id="1uN6SyRcfflf3LA_XtME-13" style="edgeStyle=orthogonalEdgeStyle;rounded=0;orthogonalLoop=1;jettySize=auto;html=1;entryX=1;entryY=0.35;entryDx=0;entryDy=0;entryPerimeter=0;fillColor=#fff2cc;strokeColor=#d6b656;" edge="1" parent="1" source="1uN6SyRcfflf3LA_XtME-11" target="1uN6SyRcfflf3LA_XtME-4">
          <mxGeometry relative="1" as="geometry" />
        </mxCell>
        <mxCell id="1uN6SyRcfflf3LA_XtME-24" style="edgeStyle=orthogonalEdgeStyle;rounded=0;orthogonalLoop=1;jettySize=auto;html=1;fillColor=#fff2cc;strokeColor=#d6b656;" edge="1" parent="1" source="1uN6SyRcfflf3LA_XtME-14" target="1uN6SyRcfflf3LA_XtME-3">
          <mxGeometry relative="1" as="geometry">
            <Array as="points">
              <mxPoint x="590" y="-50" />
            </Array>
          </mxGeometry>
        </mxCell>
        <mxCell id="1uN6SyRcfflf3LA_XtME-14" value="&lt;b&gt;Providers&lt;/b&gt;" style="whiteSpace=wrap;html=1;aspect=fixed;fillColor=#dae8fc;strokeColor=#6c8ebf;" vertex="1" parent="1">
          <mxGeometry x="400" y="-60" width="80" height="80" as="geometry" />
        </mxCell>
        <mxCell id="1uN6SyRcfflf3LA_XtME-16" style="edgeStyle=orthogonalEdgeStyle;rounded=0;orthogonalLoop=1;jettySize=auto;html=1;entryX=-0.037;entryY=0.375;entryDx=0;entryDy=0;entryPerimeter=0;fillColor=#fff2cc;strokeColor=#d6b656;" edge="1" parent="1" source="1uN6SyRcfflf3LA_XtME-4" target="1uN6SyRcfflf3LA_XtME-14">
          <mxGeometry relative="1" as="geometry">
            <Array as="points">
              <mxPoint x="320" y="-30" />
            </Array>
          </mxGeometry>
        </mxCell>
        <mxCell id="1uN6SyRcfflf3LA_XtME-17" style="edgeStyle=orthogonalEdgeStyle;rounded=0;orthogonalLoop=1;jettySize=auto;html=1;entryX=0.308;entryY=0.025;entryDx=0;entryDy=0;entryPerimeter=0;fillColor=#fff2cc;strokeColor=#d6b656;" edge="1" parent="1" source="1uN6SyRcfflf3LA_XtME-14" target="1uN6SyRcfflf3LA_XtME-4">
          <mxGeometry relative="1" as="geometry" />
        </mxCell>
        <mxCell id="1uN6SyRcfflf3LA_XtME-18" style="edgeStyle=orthogonalEdgeStyle;rounded=0;orthogonalLoop=1;jettySize=auto;html=1;entryX=0.692;entryY=-0.012;entryDx=0;entryDy=0;entryPerimeter=0;fillColor=#fff2cc;strokeColor=#d6b656;" edge="1" parent="1" source="1uN6SyRcfflf3LA_XtME-14" target="1uN6SyRcfflf3LA_XtME-7">
          <mxGeometry relative="1" as="geometry" />
        </mxCell>
        <mxCell id="1uN6SyRcfflf3LA_XtME-21" style="edgeStyle=orthogonalEdgeStyle;rounded=0;orthogonalLoop=1;jettySize=auto;html=1;entryX=0.65;entryY=0.013;entryDx=0;entryDy=0;entryPerimeter=0;fillColor=#fff2cc;strokeColor=#d6b656;" edge="1" parent="1" source="1uN6SyRcfflf3LA_XtME-3" target="1uN6SyRcfflf3LA_XtME-14">
          <mxGeometry relative="1" as="geometry" />
        </mxCell>
        <mxCell id="1uN6SyRcfflf3LA_XtME-25" value="User" style="whiteSpace=wrap;html=1;aspect=fixed;fillColor=#dae8fc;strokeColor=#6c8ebf;" vertex="1" parent="1">
          <mxGeometry x="180" y="200" width="80" height="80" as="geometry" />
        </mxCell>
        <mxCell id="1uN6SyRcfflf3LA_XtME-28" value="" style="endArrow=none;html=1;rounded=0;fillColor=#d5e8d4;strokeColor=#66FF66;fontColor=#66FF66;" edge="1" parent="1">
          <mxGeometry width="50" height="50" relative="1" as="geometry">
            <mxPoint x="620" y="210" as="sourcePoint" />
            <mxPoint x="730" y="210" as="targetPoint" />
          </mxGeometry>
        </mxCell>
        <mxCell id="1uN6SyRcfflf3LA_XtME-32" value="" style="endArrow=none;html=1;rounded=0;fillColor=#d5e8d4;strokeColor=#66FF66;fontColor=#66FF66;" edge="1" parent="1">
          <mxGeometry width="50" height="50" relative="1" as="geometry">
            <mxPoint x="625" y="250" as="sourcePoint" />
            <mxPoint x="735" y="250" as="targetPoint" />
          </mxGeometry>
        </mxCell>
        <mxCell id="1uN6SyRcfflf3LA_XtME-35" style="edgeStyle=orthogonalEdgeStyle;rounded=0;orthogonalLoop=1;jettySize=auto;html=1;entryX=1;entryY=0.5;entryDx=0;entryDy=0;fillColor=#fff2cc;strokeColor=#d6b656;" edge="1" parent="1" source="1uN6SyRcfflf3LA_XtME-34" target="1uN6SyRcfflf3LA_XtME-7">
          <mxGeometry relative="1" as="geometry">
            <Array as="points">
              <mxPoint x="700" y="185" />
              <mxPoint x="630" y="185" />
              <mxPoint x="630" y="120" />
            </Array>
          </mxGeometry>
        </mxCell>
        <mxCell id="1uN6SyRcfflf3LA_XtME-34" value="Accommodation Details" style="text;whiteSpace=wrap;html=1;strokeWidth=0;fillColor=none;strokeColor=#66FF66;fontColor=#66FF66;" vertex="1" parent="1">
          <mxGeometry x="620" y="210" width="160" height="40" as="geometry" />
        </mxCell>
        <mxCell id="1uN6SyRcfflf3LA_XtME-37" value="" style="endArrow=none;html=1;rounded=0;strokeColor=#66FF66;" edge="1" parent="1">
          <mxGeometry width="50" height="50" relative="1" as="geometry">
            <mxPoint x="50" y="170" as="sourcePoint" />
            <mxPoint x="150" y="170" as="targetPoint" />
          </mxGeometry>
        </mxCell>
        <mxCell id="1uN6SyRcfflf3LA_XtME-40" value="" style="endArrow=none;html=1;rounded=0;strokeColor=#66FF66;" edge="1" parent="1">
          <mxGeometry width="50" height="50" relative="1" as="geometry">
            <mxPoint x="50" y="220" as="sourcePoint" />
            <mxPoint x="150" y="220" as="targetPoint" />
          </mxGeometry>
        </mxCell>
        <mxCell id="1uN6SyRcfflf3LA_XtME-42" value="&amp;nbsp;Transport Details" style="text;html=1;align=center;verticalAlign=middle;whiteSpace=wrap;rounded=0;fontColor=#66FF66;strokeWidth=0;" vertex="1" parent="1">
          <mxGeometry x="60" y="180" width="60" height="30" as="geometry" />
        </mxCell>
      </root>
    </mxGraphModel>
  </diagram>
</mxfile>
